<svg xmlns="http://www.w3.org/2000/svg" viewBox="0 0 64 64" width="64" height="64" role="img" aria-label="Apollo">
  <rect width="64" height="64" rx="12" fill="#E6FF00"/>
  <g fill="#1F1F1E" transform="translate(8 8) scale(0.158)">
    <path d="M166.362 110.96L166.312 0.722C161.444 0.252 156.492 0 151.507 0C139.371 0 127.571 1.444 116.257 4.13L149.862 109.987C151.759 115.946 144.507 120.545 139.925 116.298L53.261 36.192C40.974 46.667 30.382 59.073 21.939 72.955L132.438 131.407C147.831 139.548 166.362 128.385 166.362 110.96Z"/>
    <path d="M136.272 192.56L136.322 302.245C141.324 302.748 146.393 303 151.513 303C163.464 303 175.097 301.607 186.259 298.988L152.772 193.534C150.875 187.575 158.126 182.975 162.709 187.222L249.272 267.228C261.609 256.803 272.251 244.431 280.745 230.599L170.195 172.131C154.803 163.989 136.272 175.153 136.272 192.577V192.56Z"/>
    <path d="M186.777 140.371L267.045 53.517C256.571 41.179 244.167 30.536 230.285 22.075L171.67 132.901C163.529 148.295 174.691 166.827 192.115 166.81L302.245 166.76C302.748 161.741 303 156.654 303 151.501C303 139.515 301.607 127.865 298.972 116.685L193.088 150.309C187.129 152.206 182.53 144.954 186.777 140.371Z"/>
    <path d="M110.516 136.711L0.722 136.761C0.252 141.612 0 146.531 0 151.5C0 163.62 1.427 175.387 4.112 186.685L109.526 153.212C115.485 151.315 120.084 158.567 115.837 163.15L36.005 249.534C46.446 261.822 58.8 272.431 72.631 280.875L130.944 170.62C139.085 155.226 127.923 136.694 110.499 136.694L110.516 136.711Z"/>
  </g>
</svg>
