<svg xmlns="http://www.w3.org/2000/svg" viewBox="0 0 64 64" width="64" height="64" role="img" aria-label="Lusha">
  <rect width="64" height="64" rx="14" fill="#FFFFFF" stroke="#E5E7EB" stroke-width="1"/>
  <!-- Lusha's mark is an orange flame made of stacked round rectangles and
       a flame curl at top, in their signature warm-orange. -->
  <g fill="#FA5320">
    <path fill-rule="evenodd" clip-rule="evenodd" d="M40.6 18.2 C 40.6 19.2 40.4 20.1 40.2 20.9 C 50.5 25.0 45.2 44.8 43.7 49.8 C 43.6 50.0 43.4 49.9 43.4 49.7 C 43.5 48.1 43.2 45.7 42.1 43.5 C 42.1 43.8 42.2 44.1 42.2 44.4 C 42.2 48.7 38.7 52.1 34.4 52.1 C 30.1 52.1 26.7 48.7 26.7 44.4 C 26.7 43.6 26.8 42.9 27.0 42.2 C 27.0 42.2 26.9 42.2 26.9 42.1 C 26.4 42.0 26.0 41.9 25.7 41.9 C 25.4 41.9 24.9 42.0 24.5 42.1 C 24.4 42.1 24.3 42.2 24.3 42.2 C 24.5 42.9 24.6 43.6 24.6 44.4 C 24.6 48.7 21.1 52.1 16.8 52.1 C 12.8 52.1 9.5 49.2 9.1 45.3 C 8.3 48.5 8.3 51.9 8.4 55.9 C 8.4 56.0 8.3 56.1 8.2 56.0 C 4.8 50.0 1.6 37.5 3.9 28.3 C 6.0 20.0 11.8 16.0 15.4 14.7 C 16.1 8.2 21.5 3.0 28.1 3.0 C 35.2 3.0 40.6 8.8 40.6 15.9 C 40.6 16.7 40.6 17.5 40.6 18.2 ZM 13.7 40.6 C 14.7 40.1 15.8 39.8 17.0 39.8 C 19.8 39.8 22.3 41.3 23.7 43.5 C 23.9 43.5 24.1 43.4 24.3 43.4 C 24.8 43.3 25.4 43.1 26.0 43.1 C 26.5 43.1 27.2 43.3 27.7 43.4 C 27.9 43.4 28.1 43.5 28.2 43.5 C 29.6 41.3 32.0 39.8 34.8 39.8 C 35.1 39.8 35.4 39.8 35.7 39.9 C 33.0 36.7 31.9 32.2 31.6 29.4 C 22.6 33.3 17.0 36.9 13.7 40.6 Z M 40.0 44.4 C 40.0 47.4 37.6 49.8 34.6 49.8 C 31.6 49.8 29.2 47.4 29.2 44.4 C 29.2 41.4 31.6 39.0 34.6 39.0 C 37.6 39.0 40.0 41.4 40.0 44.4 Z M 22.3 44.4 C 22.3 47.4 19.9 49.8 16.8 49.8 C 13.8 49.8 11.4 47.4 11.4 44.4 C 11.4 41.4 13.8 39.0 16.8 39.0 C 19.9 39.0 22.3 41.4 22.3 44.4 Z"/>
  </g>
</svg>
