<svg width="500" height="500" viewBox="0 0 500 500" fill="none" xmlns="http://www.w3.org/2000/svg">
<g clip-path="url(#clip0_1369_2207)">
<path d="M250 500C388.071 500 500 388.071 500 250C500 111.929 388.071 0 250 0C111.929 0 0 111.929 0 250C0 388.071 111.929 500 250 500Z" fill="#BEEEFB"/>
<rect x="161" y="361" width="178" height="37" fill="#083742"/>
<path d="M262.054 293.885C235.311 293.885 209.232 278.792 195.087 246.49L161 263.005C177.95 300.067 215.794 328 261.391 328C306.987 328 339 305.031 339 265.343C339 223.351 307.701 209.579 272.798 201.059L248.334 195.148C224.533 189.236 209.521 182.359 209.521 162.997C209.521 146.262 224.516 136.42 245.393 136.42C269.721 136.42 286.637 146.075 300.272 172.873L333.696 156.73C318.072 126.578 287.81 102 247.705 102C207.6 102 171.065 124.309 171.065 165.64C171.065 206.971 203.996 221.403 234.971 227.958L255.508 232.549C283.883 238.782 301.479 244.694 301.479 266.003C301.479 286.008 283.866 293.885 262.02 293.885H262.054Z" fill="#083742"/>
</g>
<defs>
<clipPath id="clip0_1369_2207">
<rect width="500" height="500" fill="white"/>
</clipPath>
</defs>
</svg>
